<svg xmlns="http://www.w3.org/2000/svg" xmlns:xlink="http://www.w3.org/1999/xlink" width="500" zoomAndPan="magnify" viewBox="0 0 375 374.999991" height="500" preserveAspectRatio="xMidYMid meet" version="1.0"><defs><g/><clipPath id="b3b2130cc2"><path d="M 149.484375 123 L 225.234375 123 L 225.234375 251.929688 L 149.484375 251.929688 Z M 149.484375 123 " clip-rule="nonzero"/></clipPath></defs><g fill="#f9f6f0" fill-opacity="1"><g transform="translate(186.196851, 325.508963)"><g><path d="M -35.6875 -7.023438 L -39.695312 -7.625 L -40.726562 -7.917969 L -41.671875 -8.085938 L -42.71875 -8 L -43.175781 -6.941406 L -42.667969 -5.824219 L -40.410156 -2.066406 L -39.957031 -0.957031 L -39.40625 -0.101562 L -39.332031 1.320312 L -39.5625 2.632812 L -40.808594 4.46875 L -41.265625 5.523438 L -41.792969 6.351562 L -42.789062 9.535156 L -43.210938 11.300781 L -43.367188 12.789062 L -43.359375 13.980469 L -43.519531 14.875 L -43.503906 16.011719 L -43.097656 19.226562 L -42.214844 22.199219 L -40.78125 25.105469 L -40.21875 25.910156 L -38.84375 27.613281 L -34.933594 30.90625 L -31.09375 32.777344 L -29.082031 33.351562 L -27.542969 33.515625 L -24.960938 33.917969 L -23.820312 33.902344 L -22.765625 33.765625 L -21.75 33.835938 L -19.644531 33.5625 L -14.683594 31.839844 L -12.148438 30.070312 L -9.023438 27.101562 L -8.457031 26.335938 L -7.996094 25.28125 L -7.429688 24.515625 L -6.425781 22.527344 L -6.1875 21.484375 L -5.738281 20.480469 L -4.910156 16.40625 L -4.757812 14.320312 L -4.984375 11.03125 L -5.511719 9.097656 L -5.648438 8.042969 L -6.121094 7.039062 L -6.417969 5.957031 L -6.933594 5.214844 L -7.449219 4.148438 L -9.441406 1.632812 L -11.714844 -0.503906 L -12.710938 -1.003906 L -13.449219 -1.730469 L -15.316406 -2.496094 L -16.308594 -2.996094 L -17.21875 -3.375 L -20.847656 -4.289062 L -22.484375 -4.523438 L -23.523438 -4.761719 L -24.734375 -4.652344 L -25.683594 -4.496094 L -29.046875 -4.167969 L -30.410156 -4.410156 L -32.453125 -6.019531 L -33.710938 -6.566406 L -34.65625 -6.734375 Z M -22.371094 4.917969 L -18.777344 6.042969 L -17.875 6.746094 L -17.125 7.417969 L -15.785156 9.335938 L -15.332031 10.441406 L -14.757812 12.386719 L -14.671875 13.429688 L -14.890625 16.207031 L -15.234375 17.824219 L -16.085938 19.894531 L -17.445312 21.765625 L -18.183594 22.554688 L -18.996094 23.171875 L -21.046875 24.050781 L -22.523438 24.441406 L -24.253906 24.730469 L -27.585938 23.976562 L -28.929688 23.304688 L -30.253906 22.53125 L -31.078125 21.679688 L -32.445312 19.921875 L -32.953125 18.804688 L -33.265625 17.828125 L -33.65625 15.753906 L -33.332031 12.996094 L -32.917969 11.28125 L -32.207031 9.402344 L -31.59375 8.375 L -30.898438 7.523438 L -30.058594 6.753906 L -29.203125 6.199219 L -27.226562 5.140625 L -25.03125 4.664062 Z M -22.371094 4.917969 "/></g></g></g><g fill="#f9f6f0" fill-opacity="1"><g transform="translate(147.989179, 318.858238)"><g><path d="M -16.367188 -8.3125 L -17.886719 -8.839844 L -18.78125 -9.3125 L -23.003906 -10.085938 L -25.171875 -9.96875 L -27.261719 -9.640625 L -29.242188 -8.910156 L -31.140625 -7.730469 L -31.875 -6.894531 L -32.738281 -6.296875 L -34.113281 -4.464844 L -35.429688 -2.25 L -41.460938 10.820312 L -41.785156 11.785156 L -42.375 12.808594 L -42.636719 13.625 L -44.488281 17.644531 L -45.082031 18.546875 L -44.921875 19.855469 L -44.011719 20.683594 L -40.917969 21.996094 L -38.949219 23.078125 L -37.710938 23.0625 L -36.6875 22.242188 L -27.984375 3.121094 L -26.257812 0.277344 L -25.632812 -0.316406 L -24.652344 -1.039062 L -23.5625 -1.238281 L -21.578125 -1.085938 L -18.671875 0.253906 L -17.671875 1.007812 L -17.070312 1.871094 L -16.566406 2.8125 L -16.339844 3.855469 L -16.476562 4.90625 L -17.480469 7.851562 L -24.816406 23.375 L -25.054688 24.144531 L -25.867188 25.648438 L -26.417969 27.097656 L -26.328125 28.429688 L -25.511719 29.335938 L -24.59375 29.761719 L -23.558594 30.0625 L -21.566406 31.214844 L -20.480469 31.539062 L -19.285156 31.621094 L -18.230469 30.992188 L -17.882812 29.980469 L -17.347656 28.816406 L -16.890625 28.085938 L -13.910156 21.242188 L -13.316406 20.339844 L -12.992188 19.375 L -9.25 11.648438 L -7.753906 7.640625 L -7.320312 5.429688 L -7.335938 3.425781 L -7.644531 1.171875 L -7.914062 0.226562 L -8.351562 -0.738281 L -9.429688 -2.472656 L -10.199219 -3.355469 L -10.722656 -4.125 L -12.183594 -5.796875 L -13.890625 -7.054688 L -14.859375 -7.5 Z M -16.367188 -8.3125 "/></g></g></g><g fill="#f9f6f0" fill-opacity="1"><g transform="translate(117.474547, 304.787934)"><g><path d="M -14.664062 -11.371094 L -20.796875 -15.90625 L -21.976562 -16.199219 L -23.125 -15.664062 L -26.386719 -11.382812 L -26.566406 -10.175781 L -25.964844 -9.117188 L -24.925781 -8.457031 L -24.214844 -7.71875 L -22.085938 -6.027344 L -20.554688 -5.132812 L -19.773438 -4.402344 L -18.804688 -3.730469 L -18.097656 -2.992188 L -17.097656 -2.363281 L -16.53125 -1.261719 L -16.773438 -0.242188 L -18.808594 2.433594 L -19.871094 3.03125 L -20.988281 2.917969 L -22.292969 1.992188 L -23.554688 0.828125 L -25.230469 -0.3125 L -26.9375 -1.679688 L -27.851562 -2.242188 L -28.792969 -3.027344 L -29.902344 -3.332031 L -30.84375 -2.710938 L -33.878906 1.007812 L -34.359375 2.519531 L -33.804688 3.816406 L -31.300781 5.722656 L -30.34375 6.316406 L -28.660156 7.796875 L -26.136719 9.585938 L -25.535156 10.648438 L -26.195312 12.222656 L -27.199219 13.535156 L -28.195312 14.050781 L -29.386719 13.679688 L -30.160156 13.023438 L -31.09375 12.578125 L -37.097656 7.875 L -37.933594 7.304688 L -39.214844 7.132812 L -40.21875 7.574219 L -40.824219 8.457031 L -41.511719 9.273438 L -43.363281 11.882812 L -43.597656 12.980469 L -43.007812 13.964844 L -42.117188 14.640625 L -41.480469 15.394531 L -38.011719 17.96875 L -37.015625 18.59375 L -36.230469 19.324219 L -35.476562 19.832031 L -34.695312 20.5625 L -31.152344 23.125 L -30.398438 23.898438 L -29.464844 24.34375 L -28.765625 25.011719 L -27.851562 25.570312 L -27.035156 26.261719 L -25.886719 26.597656 L -24.742188 26.0625 L -23.597656 24.386719 L -22.148438 22.746094 L -21.5625 21.714844 L -18.3125 17.621094 L -17.761719 16.632812 L -17.0625 15.894531 L -14.371094 12.445312 L -13.917969 11.585938 L -8.640625 4.746094 L -7.941406 4.003906 L -7.421875 3.058594 L -5.066406 0.230469 L -4.441406 -0.769531 L -3.910156 -2.171875 L -4.761719 -3.691406 L -7.785156 -6.0625 L -8.78125 -6.6875 L -9.511719 -7.3125 L -11.347656 -8.507812 L -12.027344 -9.292969 L -12.96875 -10.078125 L -13.882812 -10.636719 Z M -14.664062 -11.371094 "/></g></g></g><g fill="#f9f6f0" fill-opacity="1"><g transform="translate(95.243777, 288.484336)"><g><path d="M -8.988281 -11.1875 L -11.652344 -14.453125 L -12.429688 -15.191406 L -13.328125 -15.824219 L -14.144531 -16.53125 L -15.164062 -17.0625 L -15.867188 -17.71875 L -16.894531 -18.175781 L -20.914062 -19.5 L -23.136719 -19.628906 L -24.050781 -19.546875 L -25.320312 -19.226562 L -26.257812 -18.84375 L -27.152344 -18.492188 L -29.382812 -16.996094 L -30.609375 -15.804688 L -32.433594 -13.183594 L -32.695312 -12.179688 L -33.003906 -10.085938 L -33.027344 -8.800781 L -32.792969 -7.878906 L -32.613281 -6.765625 L -30.871094 -2.78125 L -30.296875 -1.867188 L -29.640625 -1.023438 L -29.074219 -0.0351562 L -28.066406 1.136719 L -26.667969 3.664062 L -26.109375 5.785156 L -26.152344 6.878906 L -27.226562 8.082031 L -28.492188 8.820312 L -29.4375 8.785156 L -30.402344 8.5625 L -31.324219 8.226562 L -32.109375 7.636719 L -33.261719 6.378906 L -34.214844 4.945312 L -34.636719 4.046875 L -34.777344 2.898438 L -34.804688 1.726562 L -34.515625 0.425781 L -34.753906 -0.917969 L -36.550781 -2.679688 L -37.410156 -3.839844 L -38.105469 -4.648438 L -38.648438 -5.445312 L -39.875 -5.726562 L -40.839844 -5.460938 L -41.46875 -4.636719 L -42.167969 -3.894531 L -43.296875 -0.957031 L -43.746094 0.976562 L -43.3125 5.246094 L -42.132812 8.167969 L -41.101562 10.023438 L -38.503906 13.207031 L -37.496094 13.886719 L -36.761719 14.660156 L -36.011719 15.285156 L -34.207031 16.402344 L -32.214844 17.082031 L -29.214844 17.875 L -26.097656 17.65625 L -23.246094 16.472656 L -21.160156 14.890625 L -19.941406 13.773438 L -18.570312 12.097656 L -17.710938 10.234375 L -17.136719 7.140625 L -18.003906 3.105469 L -18.773438 1.234375 L -23.5 -5.742188 L -24.066406 -7.789062 L -24.03125 -8.730469 L -23.230469 -9.839844 L -21.941406 -10.386719 L -20.882812 -10.382812 L -19.09375 -9.53125 L -17.9375 -8.347656 L -17.1875 -7.722656 L -15.617188 -5.488281 L -15.390625 -4.488281 L -15.246094 -3.417969 L -15.554688 -0.832031 L -15.179688 0.253906 L -14.476562 0.914062 L -13.9375 1.785156 L -11.097656 4.761719 L -10.148438 5.210938 L -9.019531 4.804688 L -8.316406 3.988281 L -7.648438 3.128906 L -7.128906 2.261719 L -6.292969 0.207031 L -6.253906 -0.8125 L -6.097656 -1.859375 L -6.425781 -4.039062 L -6.304688 -5.125 L -6.601562 -6.207031 L -7.054688 -7.222656 L -7.84375 -9.289062 Z M -8.988281 -11.1875 "/></g></g></g><g fill="#f9f6f0" fill-opacity="1"><g transform="translate(74.948798, 265.02331)"><g><path d="M -6.613281 -12.246094 L -8.429688 -15.324219 L -9.640625 -16.421875 L -11.207031 -16.171875 L -13.710938 -14.972656 L -15.410156 -13.859375 L -16.445312 -13.410156 L -18.285156 -12.335938 L -19.179688 -11.96875 L -20.128906 -11.261719 L -27.703125 -7.21875 L -28.609375 -6.539062 L -32.75 -4.445312 L -34.355469 -4.046875 L -35.40625 -4.625 L -36.5 -6.394531 L -37.21875 -8.253906 L -37.898438 -9.15625 L -38.3125 -10.023438 L -39.265625 -10.535156 L -40.601562 -10.53125 L -45.066406 -8.136719 L -45.71875 -7.109375 L -45.835938 -5.886719 L -44.242188 -2.992188 L -43.847656 -2.050781 L -43.167969 -1.148438 L -42.773438 -0.207031 L -40.503906 3.472656 L -40.179688 4.511719 L -39.738281 5.425781 L -39.058594 6.328125 L -38.585938 7.40625 L -37.9375 8.144531 L -36.558594 10.980469 L -35.621094 12.351562 L -34.011719 15.722656 L -33.054688 16.355469 L -31.671875 16.324219 L -30.765625 15.761719 L -28.375 14.570312 L -26.980469 13.683594 L -26.371094 12.800781 L -26.363281 11.703125 L -26.972656 10.816406 L -29.320312 6.328125 L -29.339844 5.183594 L -28.6875 4.15625 L -27.144531 3.425781 L -25.886719 2.613281 L -24.832031 2.09375 L -23.921875 1.535156 L -22.5625 0.910156 L -15.679688 -3.058594 L -14.695312 -3.480469 L -10.882812 -5.515625 L -9.953125 -6.148438 L -7.21875 -7.59375 L -6.28125 -7.988281 L -5.585938 -9.160156 L -5.863281 -10.773438 Z M -6.613281 -12.246094 "/></g></g></g><g fill="#f9f6f0" fill-opacity="1"><g transform="translate(61.813565, 241.083714)"><g><path d="M -5.53125 -16.984375 L -6.320312 -18.972656 L -7.132812 -19.710938 L -8.261719 -19.890625 L -13.261719 -18.195312 L -14.015625 -17.261719 L -14.195312 -15.964844 L -13.835938 -14.902344 L -13.828125 -13.554688 L -14.785156 -12.554688 L -15.796875 -12.382812 L -21.332031 -10.449219 L -22.476562 -10.171875 L -26.046875 -8.738281 L -31.214844 -7.210938 L -32.496094 -7.171875 L -33.328125 -8.128906 L -33.820312 -9.085938 L -34.585938 -10.007812 L -35.5625 -10.242188 L -40.578125 -8.597656 L -41.335938 -7.664062 L -41.582031 -6.566406 L -39.511719 -0.457031 L -39.304688 0.484375 L -38.757812 1.425781 L -37.355469 5.570312 L -37.179688 6.578125 L -36.789062 7.742188 L -35.941406 8.578125 L -34.558594 8.675781 L -30.871094 7.253906 L -29.878906 7.03125 L -29.054688 6.132812 L -28.878906 4.835938 L -29.21875 3.824219 L -28.9375 2.660156 L -27.730469 1.742188 L -12.277344 -3.664062 L -10.574219 -3.621094 L -8.433594 -0.632812 L -7.335938 -0.382812 L -2.640625 -1.808594 L -1.449219 -2.773438 L -1.335938 -3.9375 L -1.660156 -4.898438 L -2.085938 -5.824219 L -2.382812 -7.355469 L -2.960938 -8.90625 L -3.40625 -9.878906 L -3.886719 -11.96875 L -4.605469 -13.414062 L -5.441406 -15.890625 Z M -5.53125 -16.984375 "/></g></g></g><g fill="#f9f6f0" fill-opacity="1"><g transform="translate(53.737783, 221.445956)"><g><path d="M -1.644531 -21.328125 L -2.640625 -25.996094 L -3.5 -27.9375 L -6.136719 -32.421875 L -10.09375 -35.742188 L -11.125 -36.328125 L -15.007812 -37.992188 L -16.058594 -38.253906 L -17.132812 -38.296875 L -18.019531 -38.519531 L -19.207031 -38.605469 L -22.945312 -38.460938 L -26.574219 -37.796875 L -28.488281 -37.15625 L -29.554688 -36.609375 L -30.746094 -36.210938 L -32.390625 -35.066406 L -33.304688 -34.589844 L -34.128906 -33.800781 L -34.695312 -33.09375 L -35.574219 -32.300781 L -37.390625 -29.796875 L -38.789062 -26.90625 L -40.199219 -19.722656 L -39.980469 -17.226562 L -39.359375 -13.539062 L -39.03125 -12.503906 L -38.597656 -11.476562 L -38.066406 -10.570312 L -37.316406 -8.613281 L -35.324219 -6.097656 L -34.605469 -5.425781 L -33.253906 -3.855469 L -31.503906 -2.601562 L -28.65625 -1.089844 L -27.703125 -0.710938 L -24.679688 -0.0234375 L -22.351562 0.148438 L -16.179688 -0.316406 L -12.90625 -1.265625 L -11.191406 -2.257812 L -10.113281 -2.699219 L -9.21875 -3.332031 L -6.097656 -6.195312 L -4.832031 -7.835938 L -4.109375 -8.613281 L -2.597656 -12.429688 L -2.285156 -13.480469 L -1.457031 -18.132812 Z M -10.8125 -18.820312 L -11.066406 -17.71875 L -11.066406 -16.753906 L -11.824219 -14.847656 L -13.074219 -13.046875 L -13.757812 -12.4375 L -14.425781 -11.664062 L -17.28125 -10.332031 L -19.902344 -9.777344 L -21.5 -9.65625 L -23.5 -9.808594 L -24.488281 -10.023438 L -25.300781 -10.578125 L -26.253906 -10.957031 L -27.179688 -11.550781 L -27.953125 -12.269531 L -29.183594 -13.691406 L -29.765625 -14.59375 L -30.152344 -15.675781 L -30.632812 -18.09375 L -30.753906 -20.652344 L -29.84375 -23.597656 L -28.804688 -25.375 L -27.136719 -26.789062 L -26.226562 -27.320312 L -25.203125 -27.753906 L -24.289062 -28.230469 L -22.035156 -28.691406 L -19.347656 -28.664062 L -17.125 -28.425781 L -16.265625 -27.929688 L -15.417969 -27.542969 L -14.394531 -27.011719 L -12.941406 -25.507812 L -12.410156 -24.601562 L -11.839844 -23.804688 L -11.628906 -22.863281 L -11.253906 -21.882812 Z M -10.8125 -18.820312 "/></g></g></g><g fill="#f9f6f0" fill-opacity="1"><g transform="translate(49.144561, 182.866766)"><g><path d="M 4.089844 -31.207031 L 5.160156 -32.492188 L 5.554688 -33.941406 L 5.371094 -35.160156 L 4.402344 -35.855469 L -14.796875 -39.042969 L -15.714844 -39.027344 L -20.929688 -39.867188 L -22.167969 -40.226562 L -29.511719 -41.242188 L -30.648438 -40.886719 L -31.394531 -39.925781 L -32.390625 -33.386719 L -31.972656 -32.296875 L -30.960938 -31.539062 L -29.863281 -31.308594 L -28.996094 -31.332031 L -26.808594 -30.816406 L -25.632812 -30.738281 L -16.226562 -29.121094 L -15.382812 -28.660156 L -15.878906 -27.929688 L -20.214844 -24.792969 L -21.609375 -23.503906 L -33.75 -14.8125 L -34.511719 -14.125 L -35.335938 -13.015625 L -35.957031 -11.496094 L -35.625 -10.199219 L -34.703125 -9.566406 L -18.75 -7.003906 L -17.863281 -6.808594 L -15.6875 -6.566406 L -14.816406 -6.265625 L -6.167969 -4.984375 L -5.183594 -4.71875 L -0.742188 -4.117188 L 0.332031 -4.429688 L 0.878906 -5.476562 L 1.332031 -7.617188 L 1.410156 -8.792969 L 1.898438 -10.820312 L 2.023438 -11.933594 L 1.664062 -13.070312 L 0.117188 -13.859375 L -13.195312 -16.050781 L -14.230469 -16.324219 L -15.066406 -16.835938 L -14.691406 -17.480469 L -13.6875 -18.019531 L -9.507812 -21.183594 L -8.609375 -21.742188 L -7.886719 -22.542969 L 1.53125 -29.402344 L 3.277344 -30.527344 Z M 4.089844 -31.207031 "/></g></g></g><g fill="#f9f6f0" fill-opacity="1"><g transform="translate(54.901633, 146.638646)"><g><path d="M 6.023438 -13.027344 L 7.761719 -16.863281 L 8.078125 -17.890625 L 8.246094 -18.976562 L 8.515625 -20.019531 L 8.539062 -21.167969 L 8.8125 -22.09375 L 8.765625 -23.214844 L 8.160156 -27.40625 L 7.289062 -29.453125 L 6.808594 -30.234375 L 5.957031 -31.230469 L 5.199219 -31.898438 L 4.488281 -32.546875 L 2.15625 -33.878906 L 0.542969 -34.445312 L -2.617188 -34.910156 L -3.632812 -34.703125 L -5.644531 -34.046875 L -6.804688 -33.496094 L -7.527344 -32.875 L -8.441406 -32.21875 L -11.238281 -28.886719 L -11.800781 -27.964844 L -12.265625 -27.003906 L -12.898438 -26.054688 L -13.5 -24.632812 L -15.140625 -22.257812 L -16.792969 -20.8125 L -17.792969 -20.367188 L -19.347656 -20.792969 L -20.570312 -21.597656 L -20.960938 -22.457031 L -21.1875 -23.421875 L -21.300781 -24.394531 L -21.121094 -25.363281 L -20.507812 -26.953125 L -19.648438 -28.445312 L -19.027344 -29.222656 L -18.066406 -29.859375 L -17.023438 -30.402344 L -15.730469 -30.726562 L -14.636719 -31.535156 L -13.855469 -33.929688 L -13.199219 -35.210938 L -12.785156 -36.195312 L -12.3125 -37.039062 L -12.605469 -38.261719 L -13.273438 -39.007812 L -14.289062 -39.203125 L -15.265625 -39.5 L -18.398438 -39.203125 L -20.332031 -38.746094 L -23.960938 -36.460938 L -26.054688 -34.101562 L -27.257812 -32.351562 L -28.953125 -28.613281 L -29.113281 -27.40625 L -29.480469 -26.40625 L -29.707031 -25.457031 L -29.90625 -23.34375 L -29.628906 -21.257812 L -29.003906 -18.214844 L -27.421875 -15.519531 L -25.09375 -13.496094 L -22.75 -12.332031 L -21.207031 -11.738281 L -19.09375 -11.25 L -17.042969 -11.308594 L -14.015625 -12.171875 L -10.789062 -14.746094 L -9.453125 -16.265625 L -5.308594 -23.601562 L -3.726562 -25.019531 L -2.871094 -25.40625 L -1.515625 -25.183594 L -0.453125 -24.273438 L 0.0117188 -23.324219 L 0.0429688 -21.339844 L -0.5 -19.777344 L -0.726562 -18.832031 L -2.03125 -16.429688 L -2.828125 -15.78125 L -3.71875 -15.175781 L -6.171875 -14.300781 L -6.980469 -13.484375 L -7.253906 -12.558594 L -7.796875 -11.6875 L -9.199219 -7.820312 L -9.179688 -6.773438 L -8.3125 -5.941406 L -7.269531 -5.675781 L -6.203125 -5.457031 L -5.195312 -5.378906 L -2.984375 -5.542969 L -2.054688 -5.960938 L -1.046875 -6.289062 L 0.757812 -7.550781 L 1.785156 -7.929688 L 2.621094 -8.675781 L 3.332031 -9.53125 L 4.828125 -11.15625 Z M 6.023438 -13.027344 "/></g></g></g><g fill="#f9f6f0" fill-opacity="1"><g transform="translate(67.814714, 117.605234)"><g/></g></g><g fill="#f9f6f0" fill-opacity="1"><g transform="translate(73.162235, 106.670128)"><g><path d="M 21.089844 -23.34375 L 22.324219 -24.960938 L 23.078125 -25.644531 L 24.144531 -26.910156 L 24.941406 -28.199219 L 24.097656 -29.171875 L 22.933594 -29.710938 L 20.933594 -30.433594 L 17.90625 -31.214844 L 15.941406 -31.976562 L 13.796875 -32.464844 L 8.832031 -34.199219 L 7.882812 -34.335938 L 6.773438 -34.613281 L 5.683594 -35.160156 L 4.769531 -35.335938 L 3.921875 -35.667969 L 1.703125 -36.152344 L 0.621094 -36.621094 L -7.246094 -38.953125 L -8.253906 -39.425781 L -9.359375 -39.632812 L -10.285156 -40.035156 L -12.351562 -40.527344 L -13.671875 -40.492188 L -15.242188 -39.539062 L -15.945312 -37.878906 L -15.914062 -36.558594 L -15.558594 -35.59375 L -15.015625 -34.605469 L -14.78125 -33.75 L -12.550781 -28.886719 L -12.347656 -27.914062 L -11.734375 -27.003906 L -11.371094 -25.890625 L -10.871094 -25.011719 L -6.007812 -13.34375 L -5.347656 -12.320312 L -5.109375 -11.390625 L -4.566406 -10.402344 L -3.9375 -8.546875 L -2.882812 -6.527344 L -2.71875 -5.59375 L -2.183594 -4.753906 L -1.308594 -2.535156 L -0.726562 -1.585938 L 0.441406 -0.890625 L 1.394531 -1.472656 L 2.703125 -3.089844 L 3.492188 -3.8125 L 5.410156 -6.109375 L 5.949219 -7.269531 L 5.910156 -8.664062 L 5.242188 -10.554688 L 5.164062 -11.984375 L 5.476562 -13.210938 L 6.273438 -13.859375 L 7.609375 -15.667969 L 8.371094 -16.273438 L 11.820312 -20.199219 L 12.539062 -20.84375 L 13.203125 -21.824219 L 14.425781 -22.304688 L 15.734375 -22.488281 L 16.8125 -22.167969 L 17.738281 -21.765625 L 19.046875 -22.027344 L 20.261719 -22.582031 Z M 3.125 -23.203125 L 2.253906 -22.550781 L 1.511719 -21.566406 L 0.664062 -21.179688 L -0.125 -21.816406 L -2.738281 -27.53125 L -2.703125 -28.285156 L -1.886719 -28.558594 L 4.152344 -26.503906 L 4.726562 -25.707031 L 4.507812 -24.824219 Z M 3.125 -23.203125 "/></g></g></g><g fill="#f9f6f0" fill-opacity="1"><g transform="translate(96.536676, 80.316357)"><g><path d="M 5.988281 -3.902344 L 8.082031 -5.46875 L 8.902344 -5.964844 L 9.855469 -6.746094 L 10.539062 -7.730469 L 10.300781 -8.925781 L 9.65625 -9.777344 L 9.039062 -10.773438 L 7.835938 -12.34375 L 7.351562 -13.238281 L 6.613281 -14.21875 L 6.46875 -15.285156 L 7.148438 -16.460938 L 8.054688 -17.210938 L 9.101562 -17.667969 L 13.390625 -21.121094 L 16.425781 -25.65625 L 16.726562 -26.636719 L 16.859375 -27.761719 L 17.039062 -28.722656 L 17.160156 -29.777344 L 17.121094 -31.816406 L 16.695312 -34.042969 L 16.164062 -35.101562 L 15.945312 -35.988281 L 13.5625 -39.65625 L 12.875 -40.285156 L 12.082031 -41.160156 L 10.4375 -42.425781 L 8.578125 -43.351562 L 6.527344 -44.082031 L 3.375 -44.441406 L 1.257812 -44.414062 L -0.863281 -43.738281 L -1.820312 -43.535156 L -2.703125 -42.929688 L -3.792969 -42.636719 L -5.140625 -41.777344 L -6.519531 -40.769531 L -7.398438 -39.976562 L -10.113281 -38.183594 L -11.082031 -37.710938 L -13.691406 -35.667969 L -14.6875 -35.050781 L -15.570312 -34.640625 L -16.375 -33.832031 L -16.964844 -32.714844 L -16.878906 -31.738281 L -13.191406 -26.445312 L -12.164062 -24.566406 L -11.503906 -23.789062 L -3.746094 -12.363281 L -3.085938 -11.585938 L 2.441406 -3.417969 L 3.5 -2.914062 L 5.164062 -3.40625 Z M 2.285156 -23.46875 L 1.042969 -23.394531 L 0.136719 -23.871094 L -2.4375 -27.347656 L -2.980469 -28.332031 L -4.214844 -30.132812 L -4.347656 -31.273438 L -3.726562 -32.34375 L 0.941406 -35.34375 L 2.09375 -35.550781 L 3.128906 -35.550781 L 4.089844 -35.367188 L 5.132812 -34.789062 L 5.808594 -34.089844 L 6.738281 -32.917969 L 7.464844 -31.667969 L 7.699219 -30.664062 L 7.785156 -29.691406 L 7.695312 -28.59375 L 7.351562 -27.585938 L 6.796875 -26.882812 L 5.554688 -25.773438 L 3.28125 -24.28125 Z M 2.285156 -23.46875 "/></g></g></g><g fill="#f9f6f0" fill-opacity="1"><g transform="translate(122.564793, 62.042839)"><g><path d="M 6.714844 -2.453125 L 9.109375 -3.503906 L 10.019531 -3.804688 L 11.125 -4.347656 L 12.011719 -5.152344 L 12.050781 -6.371094 L 11.613281 -7.34375 L 11.234375 -8.457031 L 10.417969 -10.253906 L 10.148438 -11.238281 L 9.652344 -12.359375 L 9.75 -13.429688 L 10.679688 -14.421875 L 11.734375 -14.949219 L 12.851562 -15.15625 L 17.8125 -17.554688 L 21.792969 -21.285156 L 22.304688 -22.171875 L 22.691406 -23.238281 L 23.082031 -24.136719 L 23.4375 -25.136719 L 23.859375 -27.132812 L 23.945312 -29.398438 L 23.667969 -30.550781 L 23.65625 -31.460938 L 22.164062 -35.570312 L 21.632812 -36.339844 L 21.058594 -37.371094 L 19.742188 -38.976562 L 18.140625 -40.296875 L 16.308594 -41.46875 L 13.316406 -42.53125 L 11.25 -42.984375 L 9.03125 -42.804688 L 8.050781 -42.820312 L 7.058594 -42.433594 L 5.929688 -42.394531 L 4.417969 -41.859375 L 2.847656 -41.1875 L 1.816406 -40.613281 L -1.234375 -39.480469 L -2.285156 -39.238281 L -5.285156 -37.835938 L -6.398438 -37.460938 L -7.351562 -37.257812 L -8.316406 -36.652344 L -9.144531 -35.699219 L -9.28125 -34.730469 L -6.882812 -28.738281 L -6.304688 -26.675781 L -5.835938 -25.769531 L -0.859375 -12.890625 L -0.390625 -11.984375 L 3.152344 -2.777344 L 4.066406 -2.046875 L 5.800781 -2.152344 Z M 7.523438 -22.347656 L 6.296875 -22.554688 L 5.519531 -23.226562 L 3.796875 -27.191406 L 3.488281 -28.273438 L 2.695312 -30.308594 L 2.820312 -31.445312 L 3.671875 -32.351562 L 8.894531 -34.21875 L 10.0625 -34.160156 L 11.070312 -33.925781 L 11.96875 -33.53125 L 12.851562 -32.734375 L 13.351562 -31.898438 L 13.992188 -30.546875 L 14.417969 -29.167969 L 14.421875 -28.136719 L 14.285156 -27.167969 L 13.949219 -26.121094 L 13.386719 -25.214844 L 12.691406 -24.65625 L 11.226562 -23.855469 L 8.675781 -22.914062 Z M 7.523438 -22.347656 "/></g></g></g><g fill="#f9f6f0" fill-opacity="1"><g transform="translate(153.325108, 50.713416)"><g/></g></g><g fill="#f9f6f0" fill-opacity="1"><g transform="translate(166.154622, 47.814367)"><g><path d="M 5.21875 -25.164062 L 6.75 -25.378906 L 7.421875 -25.613281 L 8.210938 -25.75 L 8.757812 -26.183594 L 9.480469 -26.417969 L 10.015625 -26.957031 L 10.617188 -27.34375 L 11.578125 -28.410156 L 11.871094 -29.191406 L 12.28125 -29.878906 L 12.46875 -31.132812 L 12.550781 -31.890625 L 12.203125 -34.160156 L 11.921875 -34.773438 L 11.679688 -35.554688 L 11.234375 -36.203125 L 10.164062 -37.214844 L 9.582031 -37.636719 L 8.898438 -37.992188 L 8.246094 -38.085938 L 7.566406 -38.441406 L 6.855469 -38.582031 L 5.988281 -38.652344 L 3.765625 -38.363281 L 3.121094 -38.398438 L 1.78125 -37.882812 L 1.023438 -37.429688 L -0.0625 -36.5625 L -0.597656 -36.023438 L -1.378906 -34.8125 L -1.730469 -34.078125 L -2.085938 -31.84375 L -1.757812 -29.789062 L -1.351562 -28.972656 L -1.121094 -28.300781 L -0.574219 -27.714844 L -0.195312 -27.164062 L 1.007812 -26.433594 L 1.707031 -25.917969 L 2.316406 -25.714844 L 3.101562 -25.421875 Z M 4.789062 -29.730469 L 3.382812 -30.332031 L 3.039062 -31.046875 L 2.847656 -32.367188 L 3.050781 -32.976562 L 3.570312 -33.621094 L 4.34375 -33.917969 L 5.824219 -34.128906 L 7.167969 -33.574219 L 7.625 -32.816406 L 7.710938 -31.488281 L 7.351562 -30.859375 L 6.910156 -30.4375 L 6.273438 -29.886719 Z M 4.789062 -29.730469 "/></g></g></g><g fill="#f9f6f0" fill-opacity="1"><g transform="translate(182.248615, 46.121783)"><g/></g></g><g fill="#f9f6f0" fill-opacity="1"><g transform="translate(194.191188, 44.581365)"><g><path d="M 35.613281 7.390625 L 39.617188 8.035156 L 40.644531 8.335938 L 41.585938 8.511719 L 42.632812 8.4375 L 43.101562 7.386719 L 42.605469 6.261719 L 40.386719 2.480469 L 39.945312 1.367188 L 39.402344 0.507812 L 39.34375 -0.914062 L 39.589844 -2.226562 L 40.851562 -4.050781 L 41.320312 -5.101562 L 41.855469 -5.921875 L 42.886719 -9.09375 L 43.324219 -10.855469 L 43.496094 -12.34375 L 43.5 -13.535156 L 43.667969 -14.425781 L 43.667969 -15.566406 L 43.292969 -18.78125 L 42.441406 -21.765625 L 41.039062 -24.6875 L 40.484375 -25.496094 L 39.125 -27.214844 L 35.246094 -30.546875 L 31.429688 -32.457031 L 29.425781 -33.050781 L 27.886719 -33.230469 L 25.308594 -33.660156 L 24.167969 -33.65625 L 23.113281 -33.53125 L 22.097656 -33.613281 L 19.988281 -33.355469 L 15.007812 -31.6875 L 12.457031 -29.941406 L 9.300781 -27.007812 L 8.726562 -26.25 L 8.257812 -25.195312 L 7.679688 -24.4375 L 6.65625 -22.457031 L 6.40625 -21.421875 L 5.949219 -20.421875 L 5.078125 -16.355469 L 4.902344 -14.269531 L 5.097656 -10.980469 L 5.601562 -9.039062 L 5.730469 -7.984375 L 6.191406 -6.976562 L 6.476562 -5.890625 L 6.988281 -5.144531 L 7.492188 -4.074219 L 9.457031 -1.535156 L 11.710938 0.625 L 12.699219 1.136719 L 13.429688 1.871094 L 15.289062 2.652344 L 16.277344 3.164062 L 17.183594 3.550781 L 20.800781 4.5 L 22.4375 4.753906 L 23.476562 5.003906 L 24.6875 4.90625 L 25.636719 4.757812 L 29 4.46875 L 30.363281 4.722656 L 32.390625 6.351562 L 33.640625 6.910156 L 34.585938 7.089844 Z M 22.417969 -4.6875 L 18.839844 -5.847656 L 17.941406 -6.558594 L 17.203125 -7.242188 L 15.882812 -9.171875 L 15.441406 -10.285156 L 14.882812 -12.234375 L 14.808594 -13.277344 L 15.058594 -16.054688 L 15.414062 -17.667969 L 16.289062 -19.726562 L 17.667969 -21.585938 L 18.414062 -22.367188 L 19.230469 -22.972656 L 21.292969 -23.835938 L 22.773438 -24.207031 L 24.507812 -24.480469 L 27.832031 -23.691406 L 29.167969 -23.007812 L 30.484375 -22.21875 L 31.300781 -21.359375 L 32.648438 -19.585938 L 33.140625 -18.464844 L 33.445312 -17.484375 L 33.816406 -15.40625 L 33.460938 -12.652344 L 33.03125 -10.941406 L 32.300781 -9.074219 L 31.675781 -8.050781 L 30.976562 -7.207031 L 30.125 -6.441406 L 29.265625 -5.898438 L 27.28125 -4.863281 L 25.078125 -4.40625 Z M 22.417969 -4.6875 "/></g></g></g><g fill="#f9f6f0" fill-opacity="1"><g transform="translate(232.328713, 51.623784)"><g><path d="M 16.277344 8.480469 L 17.792969 9.019531 L 18.6875 9.503906 L 22.902344 10.320312 L 25.070312 10.226562 L 27.164062 9.921875 L 29.152344 9.210938 L 31.058594 8.050781 L 31.804688 7.222656 L 32.675781 6.632812 L 34.066406 4.8125 L 35.402344 2.613281 L 41.566406 -10.394531 L 41.90625 -11.355469 L 42.503906 -12.371094 L 42.773438 -13.1875 L 44.667969 -17.1875 L 45.269531 -18.082031 L 45.121094 -19.390625 L 44.222656 -20.230469 L 41.140625 -21.574219 L 39.1875 -22.675781 L 37.945312 -22.675781 L 36.914062 -21.867188 L 28.011719 -2.835938 L 26.261719 -0.0078125 L 25.628906 0.578125 L 24.640625 1.292969 L 23.550781 1.480469 L 21.566406 1.308594 L 18.675781 -0.0625 L 17.679688 -0.828125 L 17.089844 -1.695312 L 16.59375 -2.640625 L 16.378906 -3.6875 L 16.523438 -4.738281 L 17.558594 -7.671875 L 25.054688 -23.117188 L 25.300781 -23.886719 L 26.128906 -25.382812 L 26.695312 -26.824219 L 26.617188 -28.160156 L 25.8125 -29.074219 L 24.898438 -29.507812 L 23.863281 -29.820312 L 21.882812 -30.992188 L 20.804688 -31.328125 L 19.609375 -31.421875 L 18.550781 -30.804688 L 18.1875 -29.792969 L 17.640625 -28.636719 L 17.179688 -27.910156 L 14.128906 -21.097656 L 13.527344 -20.203125 L 13.1875 -19.242188 L 9.367188 -11.550781 L 7.832031 -7.558594 L 7.375 -5.355469 L 7.371094 -3.351562 L 7.65625 -1.09375 L 7.914062 -0.144531 L 8.339844 0.824219 L 9.402344 2.566406 L 10.164062 3.457031 L 10.679688 4.234375 L 12.121094 5.921875 L 13.820312 7.195312 L 14.78125 7.652344 Z M 16.277344 8.480469 "/></g></g></g><g fill="#f9f6f0" fill-opacity="1"><g transform="translate(262.702022, 66.006445)"><g><path d="M 14.546875 11.519531 L 20.632812 16.117188 L 21.8125 16.425781 L 22.960938 15.902344 L 26.269531 11.652344 L 26.460938 10.449219 L 25.871094 9.382812 L 24.835938 8.714844 L 24.136719 7.964844 L 22.023438 6.253906 L 20.503906 5.34375 L 19.726562 4.601562 L 18.765625 3.925781 L 18.066406 3.175781 L 17.074219 2.539062 L 16.519531 1.433594 L 16.769531 0.414062 L 18.832031 -2.238281 L 19.898438 -2.828125 L 21.015625 -2.703125 L 22.3125 -1.761719 L 23.5625 -0.585938 L 25.226562 0.570312 L 26.917969 1.957031 L 27.824219 2.527344 L 28.761719 3.324219 L 29.863281 3.640625 L 30.8125 3.027344 L 33.886719 -0.660156 L 34.382812 -2.167969 L 33.839844 -3.46875 L 31.355469 -5.398438 L 30.40625 -6.003906 L 28.738281 -7.503906 L 26.230469 -9.320312 L 25.644531 -10.386719 L 26.320312 -11.953125 L 27.335938 -13.257812 L 28.335938 -13.761719 L 29.523438 -13.378906 L 30.292969 -12.714844 L 31.222656 -12.261719 L 37.175781 -7.496094 L 38.007812 -6.914062 L 39.285156 -6.730469 L 40.292969 -7.160156 L 40.90625 -8.035156 L 41.605469 -8.84375 L 43.484375 -11.4375 L 43.726562 -12.53125 L 43.148438 -13.523438 L 42.265625 -14.210938 L 41.636719 -14.96875 L 38.195312 -17.578125 L 37.203125 -18.214844 L 36.425781 -18.953125 L 35.679688 -19.464844 L 34.902344 -20.207031 L 31.386719 -22.804688 L 30.644531 -23.585938 L 29.710938 -24.039062 L 29.019531 -24.714844 L 28.113281 -25.285156 L 27.304688 -25.980469 L 26.15625 -26.332031 L 25.007812 -25.808594 L 23.847656 -24.144531 L 22.378906 -22.515625 L 21.785156 -21.492188 L 18.492188 -17.433594 L 17.929688 -16.453125 L 17.226562 -15.71875 L 14.5 -12.296875 L 14.035156 -11.441406 L 8.691406 -4.65625 L 7.984375 -3.921875 L 7.453125 -2.984375 L 5.070312 -0.175781 L 4.433594 0.8125 L 3.886719 2.210938 L 4.722656 3.742188 L 7.722656 6.140625 L 8.710938 6.777344 L 9.4375 7.410156 L 11.261719 8.625 L 11.929688 9.414062 L 12.863281 10.210938 L 13.773438 10.78125 Z M 14.546875 11.519531 "/></g></g></g><g fill="#f9f6f0" fill-opacity="1"><g transform="translate(284.761716, 82.537287)"><g><path d="M 8.871094 11.28125 L 11.503906 14.570312 L 12.273438 15.316406 L 13.164062 15.960938 L 13.972656 16.675781 L 14.988281 17.214844 L 15.6875 17.882812 L 16.707031 18.347656 L 20.714844 19.710938 L 22.933594 19.863281 L 23.847656 19.792969 L 25.125 19.484375 L 26.0625 19.109375 L 26.960938 18.769531 L 29.207031 17.296875 L 30.445312 16.117188 L 32.296875 13.515625 L 32.570312 12.515625 L 32.898438 10.425781 L 32.933594 9.140625 L 32.710938 8.214844 L 32.542969 7.101562 L 30.839844 3.097656 L 30.277344 2.175781 L 29.628906 1.328125 L 29.070312 0.332031 L 28.074219 -0.847656 L 26.703125 -3.386719 L 26.167969 -5.515625 L 26.222656 -6.609375 L 27.308594 -7.800781 L 28.582031 -8.527344 L 29.523438 -8.484375 L 30.488281 -8.25 L 31.40625 -7.90625 L 32.1875 -7.308594 L 33.328125 -6.039062 L 34.261719 -4.59375 L 34.675781 -3.691406 L 34.804688 -2.542969 L 34.820312 -1.367188 L 34.519531 -0.0703125 L 34.742188 1.273438 L 36.519531 3.054688 L 37.367188 4.222656 L 38.054688 5.039062 L 38.589844 5.839844 L 39.8125 6.136719 L 40.78125 5.878906 L 41.421875 5.0625 L 42.125 4.328125 L 43.285156 1.398438 L 43.753906 -0.527344 L 43.363281 -4.800781 L 42.214844 -7.738281 L 41.199219 -9.601562 L 38.636719 -12.8125 L 37.636719 -13.503906 L 36.910156 -14.285156 L 36.167969 -14.914062 L 34.375 -16.050781 L 32.390625 -16.75 L 29.394531 -17.574219 L 26.277344 -17.390625 L 23.414062 -16.234375 L 21.3125 -14.671875 L 20.082031 -13.566406 L 18.691406 -11.910156 L 17.816406 -10.054688 L 17.210938 -6.964844 L 18.035156 -2.921875 L 18.785156 -1.039062 L 23.441406 5.980469 L 23.984375 8.035156 L 23.941406 8.976562 L 23.128906 10.078125 L 21.835938 10.613281 L 20.777344 10.597656 L 18.996094 9.726562 L 17.851562 8.53125 L 17.109375 7.898438 L 15.5625 5.648438 L 15.34375 4.644531 L 15.210938 3.574219 L 15.542969 0.992188 L 15.183594 -0.0976562 L 14.484375 -0.765625 L 13.953125 -1.644531 L 11.144531 -4.644531 L 10.199219 -5.105469 L 9.070312 -4.710938 L 8.355469 -3.902344 L 7.679688 -3.050781 L 7.152344 -2.1875 L 6.292969 -0.140625 L 6.246094 0.875 L 6.078125 1.921875 L 6.382812 4.105469 L 6.253906 5.191406 L 6.539062 6.273438 L 6.980469 7.296875 L 7.75 9.367188 Z M 8.871094 11.28125 "/></g></g></g><g fill="#f9f6f0" fill-opacity="1"><g transform="translate(304.817016, 106.205352)"><g><path d="M 6.488281 12.3125 L 8.269531 15.410156 L 9.472656 16.519531 L 11.039062 16.285156 L 13.558594 15.113281 L 15.269531 14.015625 L 16.304688 13.578125 L 18.160156 12.523438 L 19.054688 12.164062 L 20.011719 11.46875 L 27.628906 7.503906 L 28.539062 6.832031 L 32.703125 4.777344 L 34.3125 4.398438 L 35.355469 4.988281 L 36.433594 6.769531 L 37.132812 8.636719 L 37.800781 9.546875 L 38.210938 10.417969 L 39.15625 10.9375 L 40.492188 10.949219 L 44.980469 8.597656 L 45.640625 7.578125 L 45.773438 6.355469 L 44.210938 3.445312 L 43.824219 2.5 L 43.152344 1.589844 L 42.769531 0.648438 L 40.539062 -3.058594 L 40.222656 -4.097656 L 39.789062 -5.015625 L 39.121094 -5.925781 L 38.660156 -7.011719 L 38.015625 -7.757812 L 36.671875 -10.605469 L 35.746094 -11.984375 L 34.171875 -15.375 L 33.222656 -16.015625 L 31.839844 -16 L 30.925781 -15.445312 L 28.523438 -14.28125 L 27.117188 -13.40625 L 26.5 -12.527344 L 26.484375 -11.429688 L 27.082031 -10.539062 L 29.382812 -6.027344 L 29.394531 -4.882812 L 28.730469 -3.859375 L 27.175781 -3.148438 L 25.910156 -2.347656 L 24.851562 -1.839844 L 23.9375 -1.289062 L 22.574219 -0.675781 L 15.648438 3.222656 L 14.65625 3.632812 L 10.828125 5.625 L 9.890625 6.25 L 7.140625 7.664062 L 6.195312 8.050781 L 5.492188 9.214844 L 5.753906 10.832031 Z M 6.488281 12.3125 "/></g></g></g><g fill="#f9f6f0" fill-opacity="1"><g transform="translate(317.709033, 130.278468)"><g><path d="M 5.359375 17.042969 L 6.125 19.035156 L 6.929688 19.78125 L 8.058594 19.972656 L 13.074219 18.328125 L 13.835938 17.40625 L 14.03125 16.109375 L 13.679688 15.042969 L 13.6875 13.695312 L 14.65625 12.707031 L 15.667969 12.542969 L 21.226562 10.664062 L 22.371094 10.402344 L 25.953125 9.003906 L 31.140625 7.53125 L 32.421875 7.503906 L 33.242188 8.46875 L 33.726562 9.433594 L 34.480469 10.363281 L 35.457031 10.605469 L 40.488281 9.011719 L 41.253906 8.089844 L 41.511719 6.992188 L 39.503906 0.863281 L 39.304688 -0.0820312 L 38.769531 -1.03125 L 37.410156 -5.183594 L 37.246094 -6.199219 L 36.863281 -7.363281 L 36.027344 -8.210938 L 34.644531 -8.320312 L 30.945312 -6.9375 L 29.949219 -6.722656 L 29.117188 -5.835938 L 28.925781 -4.539062 L 29.257812 -3.523438 L 28.964844 -2.363281 L 27.746094 -1.457031 L 12.238281 3.789062 L 10.535156 3.730469 L 8.425781 0.71875 L 7.332031 0.460938 L 2.621094 1.835938 L 1.417969 2.789062 L 1.292969 3.953125 L 1.609375 4.914062 L 2.027344 5.84375 L 2.304688 7.378906 L 2.871094 8.933594 L 3.304688 9.914062 L 3.765625 12.007812 L 4.464844 13.460938 L 5.28125 15.945312 Z M 5.359375 17.042969 "/></g></g></g><g fill="#f9f6f0" fill-opacity="1"><g transform="translate(325.579542, 149.998046)"><g><path d="M 1.425781 21.34375 L 2.375 26.019531 L 3.210938 27.972656 L 5.804688 32.484375 L 9.726562 35.84375 L 10.75 36.441406 L 14.617188 38.144531 L 15.664062 38.417969 L 16.742188 38.46875 L 17.621094 38.703125 L 18.808594 38.800781 L 22.550781 38.695312 L 26.183594 38.066406 L 28.105469 37.445312 L 29.179688 36.910156 L 30.371094 36.523438 L 32.027344 35.394531 L 32.945312 34.929688 L 33.78125 34.148438 L 34.351562 33.449219 L 35.238281 32.664062 L 37.082031 30.175781 L 38.511719 27.300781 L 39.996094 20.136719 L 39.800781 17.636719 L 39.21875 13.941406 L 38.898438 12.902344 L 38.476562 11.871094 L 37.957031 10.960938 L 37.226562 8.996094 L 35.257812 6.460938 L 34.546875 5.78125 L 33.210938 4.199219 L 31.476562 2.925781 L 28.644531 1.382812 L 27.695312 0.996094 L 24.675781 0.277344 L 22.351562 0.0820312 L 16.175781 0.480469 L 12.890625 1.398438 L 11.167969 2.371094 L 10.085938 2.800781 L 9.183594 3.425781 L 6.035156 6.257812 L 4.75 7.886719 L 4.023438 8.65625 L 2.472656 12.453125 L 2.148438 13.503906 L 1.269531 18.144531 Z M 10.617188 18.929688 L 10.882812 17.832031 L 10.894531 16.867188 L 11.671875 14.96875 L 12.9375 13.179688 L 13.628906 12.578125 L 14.304688 11.8125 L 17.175781 10.507812 L 19.800781 9.980469 L 21.398438 9.875 L 23.398438 10.050781 L 24.386719 10.273438 L 25.191406 10.835938 L 26.140625 11.226562 L 27.058594 11.828125 L 27.828125 12.558594 L 29.042969 13.992188 L 29.613281 14.898438 L 29.992188 15.984375 L 30.445312 18.40625 L 30.539062 20.96875 L 29.597656 23.902344 L 28.542969 25.667969 L 26.859375 27.066406 L 25.945312 27.585938 L 24.917969 28.011719 L 24 28.476562 L 21.738281 28.917969 L 19.054688 28.863281 L 16.832031 28.601562 L 15.976562 28.097656 L 15.132812 27.699219 L 14.113281 27.15625 L 12.679688 25.636719 L 12.160156 24.726562 L 11.597656 23.925781 L 11.394531 22.980469 L 11.03125 21.996094 Z M 10.617188 18.929688 "/></g></g></g><g fill="#f9f6f0" fill-opacity="1"><g transform="translate(329.782762, 188.622378)"><g><path d="M -4.410156 31.164062 L -5.492188 32.4375 L -5.902344 33.882812 L -5.734375 35.101562 L -4.769531 35.808594 L 14.394531 39.191406 L 15.316406 39.1875 L 20.519531 40.078125 L 21.753906 40.453125 L 29.085938 41.542969 L 30.226562 41.199219 L 30.984375 40.246094 L 32.046875 33.71875 L 31.640625 32.621094 L 30.632812 31.855469 L 29.539062 31.613281 L 28.671875 31.628906 L 26.492188 31.089844 L 25.316406 31 L 15.925781 29.285156 L 15.085938 28.816406 L 15.589844 28.089844 L 19.960938 24.996094 L 21.367188 23.722656 L 33.597656 15.160156 L 34.363281 14.476562 L 35.199219 13.378906 L 35.839844 11.863281 L 35.519531 10.566406 L 34.601562 9.921875 L 18.675781 7.195312 L 17.792969 6.992188 L 15.617188 6.726562 L 14.753906 6.417969 L 6.113281 5.050781 L 5.132812 4.773438 L 0.703125 4.125 L -0.378906 4.425781 L -0.933594 5.464844 L -1.410156 7.601562 L -1.5 8.777344 L -2.007812 10.800781 L -2.144531 11.914062 L -1.800781 13.054688 L -0.261719 13.859375 L 13.027344 16.183594 L 14.0625 16.46875 L 14.890625 16.992188 L 14.511719 17.628906 L 13.5 18.160156 L 9.289062 21.28125 L 8.382812 21.828125 L 7.652344 22.621094 L -1.832031 29.386719 L -3.589844 30.492188 Z M -4.410156 31.164062 "/></g></g></g><g fill="#f9f6f0" fill-opacity="1"><g transform="translate(323.646287, 224.789444)"><g><path d="M -6.15625 12.964844 L -7.933594 16.785156 L -8.261719 17.804688 L -8.441406 18.890625 L -8.71875 19.929688 L -8.753906 21.078125 L -9.039062 22.003906 L -9.003906 23.121094 L -8.441406 27.320312 L -7.59375 29.375 L -7.121094 30.160156 L -6.277344 31.167969 L -5.523438 31.84375 L -4.820312 32.496094 L -2.503906 33.855469 L -0.894531 34.4375 L 2.257812 34.933594 L 3.273438 34.738281 L 5.296875 34.105469 L 6.460938 33.5625 L 7.191406 32.949219 L 8.113281 32.304688 L 10.941406 29 L 11.515625 28.085938 L 11.988281 27.128906 L 12.628906 26.1875 L 13.246094 24.769531 L 14.910156 22.410156 L 16.578125 20.984375 L 17.582031 20.546875 L 19.132812 20.988281 L 20.347656 21.808594 L 20.730469 22.671875 L 20.949219 23.640625 L 21.046875 24.613281 L 20.859375 25.578125 L 20.230469 27.164062 L 19.355469 28.644531 L 18.726562 29.417969 L 17.757812 30.042969 L 16.710938 30.578125 L 15.414062 30.886719 L 14.3125 31.683594 L 13.507812 34.070312 L 12.835938 35.347656 L 12.410156 36.324219 L 11.929688 37.160156 L 12.210938 38.390625 L 12.875 39.140625 L 13.886719 39.347656 L 14.859375 39.65625 L 17.996094 39.390625 L 19.929688 38.953125 L 23.582031 36.703125 L 25.703125 34.367188 L 26.921875 32.632812 L 28.65625 28.90625 L 28.832031 27.703125 L 29.207031 26.707031 L 29.445312 25.761719 L 29.664062 23.648438 L 29.410156 21.558594 L 28.816406 18.511719 L 27.261719 15.800781 L 24.953125 13.75 L 22.621094 12.5625 L 21.085938 11.953125 L 18.980469 11.445312 L 16.925781 11.484375 L 13.890625 12.316406 L 10.636719 14.855469 L 9.285156 16.359375 L 5.066406 23.65625 L 3.472656 25.054688 L 2.609375 25.4375 L 1.257812 25.199219 L 0.207031 24.277344 L -0.25 23.320312 L -0.261719 21.339844 L 0.296875 19.78125 L 0.535156 18.835938 L 1.863281 16.449219 L 2.664062 15.808594 L 3.5625 15.210938 L 6.027344 14.363281 L 6.839844 13.554688 L 7.125 12.632812 L 7.675781 11.765625 L 9.117188 7.917969 L 9.109375 6.867188 L 8.253906 6.027344 L 7.210938 5.75 L 6.148438 5.519531 L 5.140625 5.429688 L 2.925781 5.574219 L 1.992188 5.984375 L 0.984375 6.300781 L -0.835938 7.542969 L -1.867188 7.910156 L -2.710938 8.648438 L -3.429688 9.496094 L -4.945312 11.105469 Z M -6.15625 12.964844 "/></g></g></g><g fill="#f9f6f0" fill-opacity="1"><g transform="translate(310.43383, 253.688849)"><g/></g></g><g fill="#f9f6f0" fill-opacity="1"><g transform="translate(304.983506, 264.568572)"><g><path d="M -21.328125 23.128906 L -22.578125 24.730469 L -23.339844 25.40625 L -24.417969 26.660156 L -25.230469 27.941406 L -24.394531 28.921875 L -23.238281 29.476562 L -21.242188 30.21875 L -18.226562 31.03125 L -16.265625 31.8125 L -14.132812 32.320312 L -9.183594 34.105469 L -8.234375 34.253906 L -7.128906 34.542969 L -6.046875 35.101562 L -5.132812 35.285156 L -4.285156 35.625 L -2.074219 36.132812 L -0.996094 36.613281 L 6.84375 39.023438 L 7.847656 39.507812 L 8.953125 39.726562 L 9.875 40.136719 L 11.9375 40.652344 L 13.253906 40.632812 L 14.835938 39.695312 L 15.558594 38.039062 L 15.539062 36.71875 L 15.191406 35.753906 L 14.660156 34.757812 L 14.433594 33.898438 L 12.253906 29.011719 L 12.0625 28.039062 L 11.457031 27.125 L 11.105469 26.007812 L 10.613281 25.121094 L 5.871094 13.40625 L 5.222656 12.375 L 4.992188 11.441406 L 4.457031 10.445312 L 3.847656 8.585938 L 2.816406 6.554688 L 2.660156 5.621094 L 2.132812 4.773438 L 1.28125 2.546875 L 0.710938 1.589844 L -0.453125 0.886719 L -1.40625 1.457031 L -2.734375 3.0625 L -3.53125 3.777344 L -5.472656 6.050781 L -6.023438 7.207031 L -6 8.605469 L -5.351562 10.5 L -5.289062 11.929688 L -5.613281 13.152344 L -6.414062 13.792969 L -7.769531 15.589844 L -8.535156 16.1875 L -12.027344 20.078125 L -12.753906 20.714844 L -13.425781 21.6875 L -14.652344 22.15625 L -15.964844 22.324219 L -17.039062 21.996094 L -17.960938 21.582031 L -19.269531 21.828125 L -20.492188 22.375 Z M -3.363281 23.167969 L -2.484375 22.527344 L -1.734375 21.550781 L -0.882812 21.171875 L -0.0976562 21.820312 L 2.453125 27.554688 L 2.414062 28.3125 L 1.59375 28.574219 L -4.425781 26.460938 L -4.988281 25.65625 L -4.761719 24.777344 Z M -3.363281 23.167969 "/></g></g></g><g fill="#f9f6f0" fill-opacity="1"><g transform="translate(281.339438, 290.681094)"><g><path d="M -6.027344 3.84375 L -8.136719 5.386719 L -8.964844 5.875 L -9.925781 6.644531 L -10.617188 7.621094 L -10.394531 8.820312 L -9.757812 9.675781 L -9.148438 10.679688 L -7.960938 12.261719 L -7.484375 13.164062 L -6.757812 14.152344 L -6.625 15.214844 L -7.316406 16.386719 L -8.234375 17.128906 L -9.28125 17.574219 L -13.609375 20.984375 L -16.691406 25.484375 L -17 26.460938 L -17.144531 27.585938 L -17.335938 28.546875 L -17.464844 29.597656 L -17.445312 31.640625 L -17.042969 33.871094 L -16.523438 34.933594 L -16.3125 35.820312 L -13.96875 39.515625 L -13.289062 40.148438 L -12.503906 41.035156 L -10.875 42.316406 L -9.023438 43.261719 L -6.980469 44.011719 L -3.828125 44.402344 L -1.714844 44.398438 L 0.414062 43.746094 L 1.375 43.550781 L 2.261719 42.957031 L 3.355469 42.675781 L 4.714844 41.828125 L 6.101562 40.835938 L 6.988281 40.050781 L 9.71875 38.285156 L 10.695312 37.824219 L 13.324219 35.804688 L 14.328125 35.199219 L 15.214844 34.796875 L 16.027344 33.996094 L 16.628906 32.886719 L 16.554688 31.910156 L 12.917969 26.578125 L 11.910156 24.6875 L 11.257812 23.90625 L 3.617188 12.402344 L 2.964844 11.617188 L -2.476562 3.390625 L -3.527344 2.875 L -5.199219 3.351562 Z M -2.527344 23.445312 L -1.285156 23.382812 L -0.378906 23.871094 L 2.15625 27.371094 L 2.691406 28.359375 L 3.90625 30.175781 L 4.027344 31.316406 L 3.394531 32.378906 L -1.304688 35.332031 L -2.457031 35.527344 L -3.492188 35.515625 L -4.453125 35.324219 L -5.492188 34.734375 L -6.15625 34.027344 L -7.078125 32.84375 L -7.789062 31.589844 L -8.011719 30.585938 L -8.089844 29.609375 L -7.988281 28.515625 L -7.632812 27.507812 L -7.074219 26.8125 L -5.820312 25.714844 L -3.53125 24.246094 Z M -2.527344 23.445312 "/></g></g></g><g fill="#f9f6f0" fill-opacity="1"><g transform="translate(255.125204, 308.68656)"><g><path d="M -6.738281 2.382812 L -9.144531 3.410156 L -10.058594 3.699219 L -11.167969 4.234375 L -12.0625 5.03125 L -12.117188 6.246094 L -11.6875 7.226562 L -11.320312 8.339844 L -10.523438 10.148438 L -10.261719 11.132812 L -9.777344 12.261719 L -9.886719 13.328125 L -10.828125 14.3125 L -11.886719 14.828125 L -13.007812 15.023438 L -17.992188 17.371094 L -22.011719 21.0625 L -22.53125 21.941406 L -22.925781 23.003906 L -23.328125 23.898438 L -23.695312 24.894531 L -24.136719 26.886719 L -24.246094 29.152344 L -23.980469 30.304688 L -23.976562 31.214844 L -22.527344 35.34375 L -22.007812 36.113281 L -21.441406 37.15625 L -20.144531 38.773438 L -18.554688 40.109375 L -16.734375 41.300781 L -13.75 42.394531 L -11.691406 42.867188 L -9.46875 42.710938 L -8.488281 42.738281 L -7.492188 42.359375 L -6.363281 42.328125 L -4.847656 41.8125 L -3.269531 41.15625 L -2.230469 40.59375 L 0.828125 39.488281 L 1.882812 39.261719 L 4.898438 37.890625 L 6.015625 37.523438 L 6.96875 37.332031 L 7.941406 36.738281 L 8.777344 35.792969 L 8.925781 34.824219 L 6.589844 28.808594 L 6.03125 26.738281 L 5.574219 25.828125 L 0.726562 12.898438 L 0.269531 11.988281 L -3.179688 2.746094 L -4.085938 2.003906 L -5.820312 2.09375 Z M -7.75 22.269531 L -6.527344 22.492188 L -5.757812 23.167969 L -4.078125 27.148438 L -3.78125 28.234375 L -3.003906 30.277344 L -3.144531 31.414062 L -4.003906 32.3125 L -9.246094 34.128906 L -10.410156 34.058594 L -11.417969 33.8125 L -12.3125 33.410156 L -13.1875 32.601562 L -13.679688 31.757812 L -14.308594 30.402344 L -14.71875 29.015625 L -14.707031 27.988281 L -14.5625 27.019531 L -14.214844 25.976562 L -13.644531 25.074219 L -12.941406 24.523438 L -11.472656 23.738281 L -8.910156 22.824219 Z M -7.75 22.269531 "/></g></g></g><g fill="#f9f6f0" fill-opacity="1"><g transform="translate(224.241567, 319.69974)"><g/></g></g><g fill="#f9f6f0" fill-opacity="1"><g transform="translate(211.385932, 322.46698)"><g><path d="M -5.476562 25.109375 L -7.011719 25.308594 L -7.683594 25.535156 L -8.476562 25.664062 L -9.023438 26.089844 L -9.753906 26.320312 L -10.289062 26.855469 L -10.898438 27.234375 L -11.867188 28.289062 L -12.167969 29.070312 L -12.585938 29.75 L -12.789062 31.003906 L -12.875 31.761719 L -12.550781 34.035156 L -12.277344 34.648438 L -12.042969 35.429688 L -11.605469 36.085938 L -10.542969 37.109375 L -9.96875 37.535156 L -9.289062 37.898438 L -8.636719 38 L -7.960938 38.363281 L -7.25 38.507812 L -6.386719 38.585938 L -4.160156 38.320312 L -3.515625 38.367188 L -2.167969 37.863281 L -1.410156 37.414062 L -0.3125 36.5625 L 0.226562 36.027344 L 1.023438 34.828125 L 1.382812 34.097656 L 1.757812 31.863281 L 1.453125 29.804688 L 1.054688 28.984375 L 0.828125 28.308594 L 0.289062 27.71875 L -0.0820312 27.164062 L -1.28125 26.421875 L -1.972656 25.898438 L -2.582031 25.691406 L -3.359375 25.390625 Z M -5.09375 29.679688 L -3.695312 30.296875 L -3.359375 31.011719 L -3.179688 32.335938 L -3.390625 32.945312 L -3.917969 33.585938 L -4.691406 33.871094 L -6.175781 34.066406 L -7.515625 33.5 L -7.960938 32.738281 L -8.035156 31.40625 L -7.667969 30.78125 L -7.222656 30.363281 L -6.578125 29.820312 Z M -5.09375 29.679688 "/></g></g></g><g clip-path="url(#b3b2130cc2)"><path fill="#f9f6f0" d="M 174.875 251.582031 C 171.46875 250.542969 168.019531 247.242188 166.925781 243.972656 C 166.332031 242.203125 166.234375 241.195312 166.519531 239.785156 C 167.058594 237.105469 168.480469 234.507812 170.542969 232.441406 C 172.367188 230.613281 173.972656 229.984375 177.414062 229.753906 C 181.21875 229.496094 181.707031 229.566406 183.851562 230.652344 C 186.878906 232.191406 188.585938 233.984375 189.648438 236.742188 C 190.722656 239.523438 190.765625 241.703125 189.800781 244.214844 C 188.710938 247.050781 187.027344 248.78125 183.761719 250.421875 C 181.53125 251.542969 180.476562 251.816406 178.121094 251.886719 C 176.320312 251.941406 175.941406 251.90625 174.875 251.582031 Z M 180.699219 246.960938 C 183.105469 246 184.664062 244.761719 185.433594 243.199219 C 185.933594 242.179688 186.242188 240.535156 185.910156 240.648438 C 185.683594 240.726562 181.148438 244.476562 179.496094 245.953125 C 178.78125 246.589844 178.199219 247.214844 178.199219 247.347656 C 178.199219 247.671875 179.363281 247.492188 180.699219 246.960938 Z M 175.144531 246.171875 C 175.28125 245.847656 175.753906 245.210938 176.195312 244.761719 C 176.640625 244.308594 176.964844 243.898438 176.917969 243.851562 C 176.796875 243.734375 173.125 245.125 173.0625 245.3125 C 173 245.496094 174.519531 246.710938 174.863281 246.753906 C 174.882812 246.753906 175.011719 246.496094 175.144531 246.171875 Z M 172.816406 240.941406 C 174.246094 239.863281 174.648438 239.390625 173.925781 239.625 C 173.730469 239.6875 172.972656 239.886719 172.242188 240.066406 L 170.910156 240.394531 L 170.859375 241 C 170.800781 241.703125 170.902344 242.046875 171.164062 242.046875 C 171.265625 242.046875 172.007812 241.546875 172.816406 240.941406 Z M 182.59375 237.878906 C 183.894531 237.34375 184.683594 236.9375 184.652344 236.816406 C 184.578125 236.527344 183.917969 235.871094 183.386719 235.554688 C 182.925781 235.28125 182.914062 235.285156 182.730469 235.636719 C 182.625 235.832031 182.023438 236.570312 181.390625 237.273438 C 180.753906 237.980469 180.234375 238.597656 180.234375 238.648438 C 180.234375 238.828125 180.480469 238.746094 182.59375 237.878906 Z M 178.277344 225.398438 C 174.234375 224.636719 171.800781 222.828125 170.042969 219.273438 C 169.480469 218.136719 169.039062 216.394531 168.703125 213.988281 C 168.265625 210.851562 168.582031 205.484375 169.367188 202.75 C 169.722656 201.507812 171.054688 198.191406 171.855469 196.542969 C 173.96875 192.203125 178.472656 187.175781 184.320312 182.625 C 185.417969 181.773438 187.257812 180.203125 188.410156 179.140625 C 189.5625 178.078125 191.351562 176.53125 192.386719 175.703125 C 195.460938 173.242188 197.59375 171.066406 199.84375 168.09375 C 201.296875 166.175781 202.109375 164.929688 202.726562 163.675781 C 203.503906 162.097656 203.621094 161.707031 203.988281 159.589844 C 204.207031 158.300781 204.347656 157.082031 204.296875 156.875 C 204.246094 156.667969 204.289062 156.15625 204.398438 155.738281 C 204.550781 155.136719 204.550781 154.671875 204.402344 153.519531 C 203.859375 149.363281 202.132812 146.210938 198.820312 143.339844 C 197.191406 141.925781 196.382812 141.390625 194.113281 140.242188 C 191.519531 138.925781 189.566406 138.308594 187.984375 138.308594 C 185.675781 138.308594 182.976562 139.296875 180.097656 141.195312 C 178.167969 142.46875 177.117188 143.429688 176.328125 144.640625 C 175.089844 146.539062 174.140625 150.28125 174.007812 153.753906 C 173.894531 156.832031 174.242188 158.3125 176.015625 162.273438 C 176.527344 163.417969 176.945312 164.433594 176.945312 164.53125 C 176.945312 164.628906 177.292969 165.789062 177.714844 167.109375 C 178.640625 170.007812 179.070312 173.023438 178.820312 174.859375 C 178.636719 176.21875 177.296875 179.046875 176.292969 180.1875 C 174.414062 182.328125 170.15625 184.199219 167.621094 184 C 166.382812 183.90625 163.492188 183.25 162.25 182.789062 C 159.863281 181.898438 157.488281 180.402344 156.117188 178.9375 C 154.835938 177.5625 153.058594 174.980469 152.316406 173.417969 C 150.949219 170.539062 150.535156 168.582031 150.039062 162.75 C 149.605469 157.640625 149.601562 156.679688 149.980469 154.484375 C 150.164062 153.410156 150.449219 151.648438 150.613281 150.570312 C 151.121094 147.195312 152.222656 143.851562 154.238281 139.574219 C 156.398438 134.996094 159.101562 131.964844 163.261719 129.453125 C 164.289062 128.832031 168.660156 126.691406 170.734375 125.792969 C 172.554688 125.007812 176.027344 124.066406 178.480469 123.695312 C 179.664062 123.519531 180.984375 123.304688 181.414062 123.21875 C 182.464844 123.011719 186.878906 122.945312 190.691406 123.082031 C 194.070312 123.203125 197.210938 123.554688 198.984375 124.011719 C 201.1875 124.574219 207.097656 126.945312 208.75 127.925781 C 209.730469 128.507812 212.085938 130.167969 213.238281 131.085938 C 216.75 133.886719 222 140.992188 223.167969 144.519531 C 223.660156 146.003906 224.257812 148.839844 224.714844 151.828125 C 225.089844 154.296875 225.132812 155.019531 225.136719 158.898438 C 225.144531 164.730469 224.816406 167.089844 223.324219 171.941406 C 221.75 177.066406 220.570312 179.328125 217.230469 183.65625 C 214.136719 187.664062 212.640625 189.027344 207.59375 192.457031 C 201.925781 196.304688 198.921875 198.800781 196.660156 201.535156 C 195.050781 203.484375 195.070312 203.449219 193.847656 206.445312 C 192.726562 209.183594 192.574219 209.742188 191.761719 214.066406 C 191.042969 217.886719 189.890625 221.203125 188.707031 222.835938 C 188.007812 223.808594 186.742188 224.679688 185.332031 225.160156 C 183.640625 225.738281 180.632812 225.839844 178.277344 225.398438 Z M 184.167969 220.871094 C 184.566406 220.695312 185.03125 220.347656 185.207031 220.101562 C 185.566406 219.589844 186.820312 216.335938 186.820312 215.914062 C 186.820312 215.480469 186.632812 215.582031 185.71875 216.511719 C 184.867188 217.375 184.859375 217.386719 184.914062 218.230469 C 184.960938 218.960938 184.914062 219.136719 184.59375 219.457031 C 184.277344 219.777344 184.011719 219.847656 182.808594 219.933594 C 181.988281 219.992188 181.152344 219.964844 180.8125 219.871094 C 179.695312 219.5625 179.371094 218.308594 180.148438 217.285156 C 180.523438 216.796875 180.535156 216.738281 180.273438 216.738281 C 180.109375 216.738281 178.972656 217.058594 177.746094 217.449219 C 176.515625 217.835938 175.304688 218.15625 175.050781 218.15625 C 174.796875 218.15625 174.59375 218.226562 174.59375 218.316406 C 174.59375 218.6875 175.953125 219.917969 176.847656 220.351562 C 178.78125 221.292969 182.613281 221.566406 184.167969 220.871094 Z M 174.035156 215.5 C 174.210938 215.335938 175.332031 214.800781 176.523438 214.3125 C 179.265625 213.195312 182.742188 211.546875 182.742188 211.371094 C 182.742188 211.1875 182.40625 211.203125 180.347656 211.488281 L 178.546875 211.734375 L 177.75 211.328125 C 177.3125 211.105469 176.882812 210.789062 176.792969 210.621094 C 176.527344 210.125 176.605469 209.269531 176.949219 208.828125 C 177.136719 208.59375 178.402344 207.847656 179.96875 207.058594 C 181.453125 206.308594 182.695312 205.671875 182.730469 205.640625 C 183.003906 205.394531 182.246094 205.5 179.789062 206.046875 C 178.222656 206.394531 176.773438 206.679688 176.558594 206.679688 C 175.648438 206.679688 174.90625 205.949219 174.90625 205.050781 C 174.90625 204.835938 175.082031 204.453125 175.296875 204.195312 C 175.625 203.804688 176.179688 203.570312 178.699219 202.753906 C 182.191406 201.621094 184.9375 200.585938 184.9375 200.398438 C 184.9375 200.324219 184.816406 200.292969 184.664062 200.324219 C 181.492188 201.011719 178.640625 201.480469 178.191406 201.394531 C 176.96875 201.160156 176.472656 200.683594 176.472656 199.730469 C 176.472656 198.953125 176.832031 198.566406 178.210938 197.875 C 178.894531 197.527344 179.453125 197.167969 179.453125 197.074219 C 179.453125 196.972656 179.339844 196.949219 179.175781 197.011719 C 179.027344 197.070312 178.351562 197.160156 177.679688 197.207031 L 176.460938 197.296875 L 176.085938 197.941406 C 175.460938 199.015625 173.808594 203.21875 173.484375 204.558594 C 172.871094 207.117188 172.726562 211.730469 173.1875 214.304688 C 173.484375 215.960938 173.503906 215.988281 174.035156 215.5 Z M 187.445312 212.964844 C 187.445312 212.621094 187.386719 212.527344 187.210938 212.597656 C 186.976562 212.6875 186.886719 213.296875 187.078125 213.488281 C 187.265625 213.675781 187.445312 213.421875 187.445312 212.964844 Z M 188.769531 206.90625 C 189.046875 206.625 189.097656 206.210938 188.851562 206.210938 C 188.613281 206.210938 187.484375 206.804688 187.371094 206.992188 C 187.207031 207.261719 188.496094 207.179688 188.769531 206.90625 Z M 194.1875 195.515625 C 196.582031 195.164062 196.628906 195.152344 197.324219 194.550781 C 199.058594 193.046875 203.296875 189.949219 206.726562 187.671875 C 208.679688 186.375 210.398438 184.925781 211.636719 183.53125 C 213.484375 181.445312 216.214844 177.660156 216.960938 176.15625 C 218.191406 173.667969 219.289062 170.523438 218.859375 170.707031 C 218.78125 170.738281 217.394531 171.429688 215.773438 172.242188 L 212.828125 173.71875 L 213.265625 174.179688 C 213.613281 174.542969 213.703125 174.785156 213.703125 175.351562 C 213.703125 176.503906 213.339844 176.746094 207.90625 179.199219 C 207.148438 179.539062 207.136719 179.550781 207.589844 179.597656 C 209.679688 179.8125 209.761719 179.835938 210.203125 180.277344 C 210.8125 180.886719 210.796875 181.589844 210.164062 182.46875 C 209.789062 182.988281 209.390625 183.273438 208.378906 183.75 C 207.660156 184.085938 207.003906 184.363281 206.921875 184.363281 C 206.835938 184.363281 206.683594 184.464844 206.578125 184.589844 C 206.425781 184.773438 206.441406 184.894531 206.636719 185.175781 C 207.113281 185.855469 206.820312 186.882812 205.976562 187.484375 C 205.734375 187.65625 203.878906 188.484375 201.859375 189.324219 C 199.839844 190.164062 198.132812 190.929688 198.070312 191.023438 C 198.007812 191.121094 197.953125 191.367188 197.953125 191.574219 C 197.945312 192.277344 197.023438 192.886719 193.777344 194.328125 C 192.0625 195.089844 190.589844 195.78125 190.503906 195.871094 C 190.320312 196.058594 190.753906 196.019531 194.1875 195.515625 Z M 182.582031 192.523438 C 187.164062 191.195312 188.386719 190.800781 188.386719 190.640625 C 188.386719 190.558594 188.316406 190.492188 188.226562 190.492188 C 187.980469 190.492188 187.449219 189.515625 187.449219 189.058594 C 187.449219 188.507812 187.976562 187.867188 188.675781 187.570312 C 188.992188 187.433594 191.4375 186.59375 194.109375 185.699219 C 199.957031 183.746094 200.773438 183.445312 200.773438 183.234375 C 200.773438 183.054688 200.019531 183.121094 196.761719 183.574219 C 195.277344 183.78125 194.496094 183.820312 193.941406 183.71875 C 192.992188 183.546875 192.464844 183.011719 192.464844 182.230469 C 192.464844 181.933594 192.390625 181.691406 192.304688 181.691406 C 192.214844 181.691406 191.523438 182.273438 190.761719 182.988281 C 190 183.703125 188.292969 185.132812 186.960938 186.167969 C 185.632812 187.207031 183.4375 189.148438 182.074219 190.492188 C 179.890625 192.644531 179.328125 193.320312 179.71875 193.320312 C 179.78125 193.320312 181.066406 192.960938 182.582031 192.523438 Z M 195.890625 179.863281 C 196.894531 179.550781 197.773438 179.261719 197.84375 179.21875 C 197.914062 179.175781 197.835938 178.992188 197.667969 178.804688 C 197.496094 178.621094 197.308594 178.304688 197.25 178.101562 C 197.179688 177.875 197.054688 177.769531 196.917969 177.824219 C 196.675781 177.917969 193.71875 180.273438 193.71875 180.371094 C 193.71875 180.507812 194.148438 180.40625 195.890625 179.863281 Z M 169.554688 179.25 C 170.710938 178.886719 171.988281 178.164062 172.824219 177.402344 C 173.34375 176.929688 174.433594 174.722656 174.433594 174.140625 C 174.433594 173.519531 174.121094 172.417969 173.941406 172.417969 C 173.871094 172.417969 172.90625 173.324219 171.800781 174.4375 C 170.691406 175.546875 169.085938 177.039062 168.230469 177.746094 C 167.375 178.457031 166.675781 179.121094 166.675781 179.226562 C 166.675781 179.390625 167.277344 179.566406 168.039062 179.625 C 168.1875 179.636719 168.867188 179.46875 169.554688 179.25 Z M 161.820312 175.140625 C 162.421875 174.21875 162.941406 173.386719 162.976562 173.296875 C 163.011719 173.207031 162.324219 173.804688 161.449219 174.621094 C 160.574219 175.441406 159.859375 176.183594 159.859375 176.277344 C 159.859375 176.519531 160.199219 176.816406 160.480469 176.816406 C 160.625 176.816406 161.191406 176.105469 161.820312 175.140625 Z M 168.097656 173.675781 C 170.1875 171.761719 171.175781 170.941406 172.609375 169.945312 C 173.125 169.585938 173.335938 169.332031 173.332031 169.082031 C 173.320312 168.539062 172.480469 166.078125 172.285156 166.011719 C 172.0625 165.941406 171.054688 167.269531 169.386719 169.824219 C 168.65625 170.949219 167.375 172.785156 166.542969 173.910156 C 165.714844 175.035156 165.03125 176.011719 165.03125 176.085938 C 165.027344 176.359375 166.03125 175.570312 168.097656 173.675781 Z M 205.789062 173.128906 C 208.675781 171.976562 211.535156 170.800781 212.136719 170.511719 C 213.183594 170.015625 213.210938 169.992188 212.730469 169.9375 C 212.453125 169.90625 211.21875 170.070312 209.988281 170.296875 C 207.402344 170.777344 206.5625 170.75 205.984375 170.167969 C 205.683594 169.871094 205.589844 169.609375 205.589844 169.101562 C 205.589844 168.226562 205.839844 168.003906 209.015625 166.089844 C 211.5 164.589844 212.445312 163.949219 212.328125 163.832031 C 212.292969 163.796875 211.460938 163.953125 210.476562 164.175781 C 209.492188 164.398438 208.382812 164.558594 208.007812 164.53125 L 207.328125 164.480469 L 206.441406 166.164062 C 205.519531 167.90625 201.539062 173.347656 200.316406 174.53125 C 199.964844 174.875 199.675781 175.21875 199.675781 175.296875 C 199.675781 175.539062 200.375 175.289062 205.789062 173.128906 Z M 158.386719 172.773438 C 158.722656 172.363281 159.9375 170.96875 161.085938 169.671875 C 163.550781 166.894531 164.171875 166.128906 163.957031 166.128906 C 163.871094 166.128906 163.460938 166.390625 163.042969 166.707031 C 162.625 167.023438 161.296875 168.039062 160.089844 168.964844 C 157.777344 170.734375 157.097656 171.160156 156.570312 171.160156 C 156.394531 171.160156 156.25 171.253906 156.25 171.371094 C 156.25 171.652344 157.457031 173.515625 157.640625 173.515625 C 157.71875 173.515625 158.054688 173.183594 158.386719 172.773438 Z M 162.632812 160.496094 C 162.5625 160.464844 161.363281 160.984375 159.964844 161.652344 C 158.570312 162.320312 156.808594 163.121094 156.054688 163.433594 L 154.683594 163.996094 L 154.683594 164.957031 C 154.683594 165.796875 154.894531 167.429688 155.070312 167.960938 C 155.105469 168.0625 156.847656 166.433594 158.945312 164.347656 C 161.042969 162.257812 162.703125 160.523438 162.632812 160.496094 Z M 218.871094 165.992188 L 220.277344 165.894531 L 220.378906 165.386719 C 220.601562 164.300781 220.703125 162.355469 220.539062 162.355469 C 220.335938 162.355469 215.085938 165.921875 214.941406 166.160156 C 214.863281 166.28125 215.207031 166.296875 216.152344 166.210938 C 216.875 166.140625 218.097656 166.042969 218.871094 165.988281 Z M 170.988281 161.953125 C 170.988281 161.816406 170.902344 161.730469 170.800781 161.765625 C 170.511719 161.863281 170.460938 162.199219 170.738281 162.199219 C 170.875 162.199219 170.988281 162.089844 170.988281 161.953125 Z M 156.144531 158.523438 C 157.023438 157.710938 157.953125 156.867188 158.210938 156.652344 C 158.988281 155.996094 158.578125 156.035156 157.417969 156.730469 C 156.050781 157.546875 155.375 157.597656 154.695312 156.945312 C 154.273438 156.542969 154.210938 156.523438 154.117188 156.765625 C 154 157.074219 154.144531 159.605469 154.292969 159.847656 C 154.34375 159.929688 154.425781 160 154.46875 160 C 154.515625 160 155.269531 159.335938 156.144531 158.523438 Z M 216.167969 159.46875 C 217.3125 159.179688 218.78125 158.847656 219.425781 158.734375 C 220.074219 158.621094 220.65625 158.453125 220.722656 158.359375 C 221.226562 157.664062 219.515625 146.261719 218.878906 146.0625 C 218.789062 146.035156 218.5625 146.355469 218.367188 146.777344 C 218.136719 147.289062 217.304688 148.289062 215.878906 149.769531 C 214.703125 150.992188 213.785156 152.039062 213.835938 152.089844 C 213.890625 152.144531 214.859375 151.921875 215.992188 151.597656 C 218.75 150.8125 219.113281 150.886719 219.871094 152.394531 C 220.523438 153.695312 219.851562 154.699219 216.320312 157.699219 C 214.253906 159.453125 213.703125 160 214.011719 160 C 214.054688 160 215.023438 159.761719 216.167969 159.46875 Z M 210.042969 158.796875 C 212.496094 156.90625 213.695312 155.835938 213.417969 155.785156 C 213.136719 155.730469 209.285156 156.953125 208.980469 157.195312 C 208.882812 157.273438 208.753906 157.671875 208.699219 158.078125 C 208.644531 158.488281 208.558594 159.015625 208.511719 159.253906 C 208.382812 159.910156 208.734375 159.804688 210.042969 158.796875 Z M 165.046875 155.816406 C 166.992188 154.960938 167.980469 154.65625 168.816406 154.65625 L 169.574219 154.65625 L 169.574219 153.085938 C 169.574219 152.21875 169.542969 151.511719 169.5 151.511719 C 169.40625 151.511719 166.300781 153.898438 164.761719 155.15625 C 163.007812 156.589844 163.054688 156.695312 165.046875 155.816406 Z M 156.019531 153.066406 C 156.707031 152.367188 158.65625 150.566406 160.355469 149.0625 C 162.050781 147.558594 163.488281 146.253906 163.546875 146.160156 C 163.773438 145.792969 163.449219 145.859375 162.382812 146.394531 C 161.011719 147.089844 160.457031 147.109375 159.84375 146.496094 C 159.507812 146.15625 159.386719 145.886719 159.386719 145.46875 C 159.386719 144.546875 159.742188 143.945312 160.949219 142.828125 L 162.085938 141.769531 L 161.582031 141.195312 C 161.148438 140.699219 161.085938 140.53125 161.15625 140.007812 C 161.203125 139.671875 161.328125 139.289062 161.441406 139.152344 C 161.550781 139.019531 163.800781 137.828125 166.4375 136.507812 C 169.078125 135.1875 172.664062 133.316406 174.410156 132.355469 C 178.917969 129.867188 180.824219 128.933594 182.664062 128.320312 C 184.636719 127.65625 185.09375 127.640625 185.734375 128.214844 C 186.367188 128.78125 186.414062 129.554688 185.871094 130.359375 C 185.539062 130.847656 181.863281 133.996094 180.53125 134.929688 C 180.0625 135.261719 179.953125 135.480469 180.261719 135.480469 C 180.359375 135.480469 182.488281 134.625 184.984375 133.578125 C 189.828125 131.554688 193.683594 130.179688 194.953125 130.03125 C 195.582031 129.957031 195.835938 130.003906 196.28125 130.277344 L 196.828125 130.617188 L 198.328125 129.871094 C 199.15625 129.460938 199.832031 129.070312 199.832031 129.007812 C 199.832031 128.769531 197.324219 128.117188 195.363281 127.84375 C 193.722656 127.613281 192.246094 127.554688 187.761719 127.550781 C 182.699219 127.542969 181.988281 127.574219 179.921875 127.90625 C 176.023438 128.523438 173.601562 129.300781 169.523438 131.242188 C 162.125 134.765625 160.125 136.816406 157.113281 143.972656 C 155.996094 146.628906 155.25 149.210938 154.925781 151.523438 C 154.789062 152.511719 154.632812 153.550781 154.582031 153.832031 C 154.53125 154.113281 154.554688 154.339844 154.628906 154.339844 C 154.707031 154.339844 155.332031 153.769531 156.019531 153.066406 Z M 210.726562 150.476562 C 212.40625 148.941406 212.761719 148.417969 211.941406 148.683594 C 211.703125 148.761719 210.785156 149.042969 209.902344 149.308594 C 208.945312 149.601562 208.296875 149.878906 208.296875 150 C 208.296875 150.660156 208.679688 151.984375 208.867188 151.984375 C 208.988281 151.984375 209.824219 151.304688 210.726562 150.476562 Z M 169.417969 147.449219 L 170.4375 147.347656 L 170.800781 146.246094 C 171 145.640625 171.300781 144.816406 171.464844 144.410156 C 171.8125 143.566406 171.828125 143.496094 171.621094 143.496094 C 171.320312 143.496094 166.128906 147.964844 166.128906 148.226562 C 166.128906 148.292969 166.636719 148.167969 167.261719 147.949219 C 167.886719 147.726562 168.859375 147.503906 169.417969 147.449219 Z M 207.964844 145.046875 C 208.488281 144.601562 208.878906 144.183594 208.835938 144.113281 C 208.792969 144.042969 208.425781 144.089844 208.019531 144.214844 C 207.609375 144.339844 207.011719 144.515625 206.691406 144.601562 C 206.367188 144.691406 206.101562 144.835938 206.101562 144.921875 C 206.101562 145.199219 206.601562 145.855469 206.808594 145.855469 C 206.921875 145.855469 207.441406 145.492188 207.964844 145.046875 Z M 214.984375 144.441406 C 215.90625 144.179688 216.929688 143.96875 217.257812 143.96875 C 217.644531 143.96875 217.859375 143.894531 217.859375 143.765625 C 217.859375 143.464844 216.238281 141.054688 216.054688 141.085938 C 215.96875 141.101562 215.832031 141.351562 215.75 141.636719 C 215.660156 141.945312 215.09375 142.6875 214.375 143.433594 C 213.261719 144.601562 213.019531 144.910156 213.234375 144.910156 C 213.273438 144.910156 214.0625 144.699219 214.984375 144.441406 Z M 204.140625 141.230469 C 204.402344 141.023438 204.578125 140.820312 204.535156 140.78125 C 204.492188 140.742188 204.011719 140.660156 203.464844 140.601562 C 202.507812 140.496094 202.480469 140.503906 202.644531 140.808594 C 202.800781 141.101562 203.402344 141.613281 203.589844 141.609375 C 203.636719 141.609375 203.882812 141.4375 204.140625 141.230469 Z M 213.078125 139.464844 C 213.765625 139.320312 214.394531 139.148438 214.46875 139.082031 C 214.640625 138.929688 213.738281 137.683594 212.777344 136.746094 C 212.015625 136 211.964844 135.996094 212.222656 136.675781 C 212.484375 137.371094 212.242188 138.40625 211.648438 139.117188 C 211.023438 139.867188 211.003906 139.949219 211.472656 139.824219 C 211.664062 139.769531 212.386719 139.609375 213.078125 139.464844 Z M 202.214844 137.421875 C 202.527344 136.917969 202.761719 136.480469 202.730469 136.449219 C 202.699219 136.417969 202.277344 136.511719 201.785156 136.652344 C 200.660156 136.980469 200.136719 136.867188 199.351562 136.121094 C 198.601562 135.402344 198.542969 134.796875 199.128906 133.773438 C 199.574219 132.988281 199.582031 132.964844 199.332031 132.964844 C 198.898438 132.964844 194.816406 135.246094 194.816406 135.484375 C 194.816406 135.566406 195.328125 135.890625 195.953125 136.203125 C 197.71875 137.09375 199.09375 137.925781 200.335938 138.867188 L 201.476562 139.726562 L 201.5625 139.035156 C 201.609375 138.628906 201.878906 137.964844 202.214844 137.421875 Z M 208.933594 136.183594 C 210.207031 135.75 210.707031 135.648438 211.195312 135.726562 L 211.824219 135.828125 L 211.351562 135.328125 C 210.773438 134.710938 208.871094 133.28125 208.628906 133.28125 C 208.53125 133.28125 208.453125 133.480469 208.453125 133.726562 C 208.453125 133.992188 208.195312 134.539062 207.8125 135.089844 C 206.628906 136.78125 206.652344 136.738281 206.992188 136.738281 C 207.160156 136.738281 208.03125 136.488281 208.933594 136.183594 Z M 205.820312 131.769531 C 206.074219 131.609375 205.929688 131.390625 205.433594 131.183594 C 205.15625 131.066406 204.847656 131 204.753906 131.03125 C 204.527344 131.113281 203.886719 132.265625 204.003906 132.382812 C 204.085938 132.460938 205.441406 132.003906 205.820312 131.769531 Z M 205.820312 131.769531 " fill-opacity="1" fill-rule="nonzero"/></g></svg>